<svg id="Layer_1" data-name="Layer 1" xmlns="http://www.w3.org/2000/svg" viewBox="0 0 184.02 242"><defs><style>.cls-1{fill:#f7c548;stroke:#000;stroke-miterlimit:10;}</style></defs><title>Rasmus buhl logo 1</title><rect class="cls-1" x="106.52" y="0.5" width="34" height="241" rx="9.16"/><rect class="cls-1" x="151.52" y="0.5" width="32" height="89" rx="7.45"/><rect class="cls-1" x="151.52" y="123.5" width="32" height="118" rx="7.25"/><rect class="cls-1" x="61.52" y="0.5" width="33" height="241" rx="6.74"/><rect class="cls-1" x="16.52" y="0.5" width="33" height="89" rx="7.62"/><path class="cls-1" d="M570.5,417v25.7a8.69,8.69,0,0,1-.15,1.61l-14.52,75.32a8.5,8.5,0,0,1-8.34,6.88H530a8.49,8.49,0,0,1-8.3-10.25l21.4-101a8.51,8.51,0,0,1,8.31-6.73H562A8.49,8.49,0,0,1,570.5,417Z" transform="translate(-520.98 -285)"/></svg>